{
  "accessors": [
    {
      "bufferView": 3,
      "componentType": 5126,
      "count": 10927,
      "max": [
        34.204498291015625,
        85.277099609375,
        39.838104248046875
      ],
      "min": [
        -34.204498291015625,
        -1.1808799505233765,
        -84.1365966796875
      ],
      "type": "VEC3"
    },
    {
      "bufferView": 3,
      "byteOffset": 131124,
      "componentType": 5126,
      "count": 10927,
      "max": [
        0.9998615384101868,
        0.9999950528144836,
        0.9983873963356018
      ],
      "min": [
        -0.9998615384101868,
        -0.9995438456535339,
        -0.9986693263053894
      ],
      "type": "VEC3"
    },
    {
      "bufferView": 2,
      "componentType": 5126,
      "count": 10927,
      "max": [
        0.992546021938324,
        0.9940840005874634
      ],
      "min": [
        0.007453999947756529,
        0.004991999827325344
      ],
      "type": "VEC2"
    },
    {
      "bufferView": 1,
      "componentType": 5125,
      "count": 11430,
      "type": "SCALAR"
    },
    {
      "bufferView": 3,
      "byteOffset": 262248,
      "componentType": 5126,
      "count": 5340,
      "max": [
        130.0,
        72.35800170898438,
        15.578601837158203
      ],
      "min": [
        -130.0,
        36.9286003112793,
        -43.79280090332031
      ],
      "type": "VEC3"
    },
    {
      "bufferView": 3,
      "byteOffset": 326328,
      "componentType": 5126,
      "count": 5340,
      "max": [
        0.9340588450431824,
        0.9991114139556885,
        0.9877908229827881
      ],
      "min": [
        -0.9340586066246033,
        -0.9920422434806824,
        -0.9605880975723267
      ],
      "type": "VEC3"
    },
    {
      "bufferView": 2,
      "byteOffset": 87416,
      "componentType": 5126,
      "count": 5340,
      "max": [
        0.9921879768371582,
        1.9922800064086914
      ],
      "min": [
        0.007124000228941441,
        1.020490050315857
      ],
      "type": "VEC2"
    },
    {
      "bufferView": 1,
      "byteOffset": 45720,
      "componentType": 5125,
      "count": 5340,
      "type": "SCALAR"
    },
    {
      "bufferView": 3,
      "byteOffset": 390408,
      "componentType": 5126,
      "count": 348,
      "max": [
        9.302619934082031,
        82.5886001586914,
        34.08909606933594
      ],
      "min": [
        -9.302619934082031,
        73.18499755859375,
        17.74610137939453
      ],
      "type": "VEC3"
    },
    {
      "bufferView": 3,
      "byteOffset": 394584,
      "componentType": 5126,
      "count": 348,
      "max": [
        0.9842571020126343,
        0.7715928554534912,
        0.773823082447052
      ],
      "min": [
        -0.9842571020126343,
        -0.3135550916194916,
        -0.4999227523803711
      ],
      "type": "VEC3"
    },
    {
      "bufferView": 2,
      "byteOffset": 130136,
      "componentType": 5126,
      "count": 348,
      "max": [
        0.49362999200820923,
        2.9533400535583496
      ],
      "min": [
        0.00636899983510375,
        2.8183400630950928
      ],
      "type": "VEC2"
    },
    {
      "bufferView": 1,
      "byteOffset": 67080,
      "componentType": 5125,
      "count": 348,
      "type": "SCALAR"
    },
    {
      "bufferView": 3,
      "byteOffset": 398760,
      "componentType": 5126,
      "count": 10927,
      "max": [
        34.204498291015625,
        85.277099609375,
        39.838104248046875
      ],
      "min": [
        -34.204498291015625,
        -1.1808799505233765,
        -84.1365966796875
      ],
      "type": "VEC3"
    },
    {
      "bufferView": 3,
      "byteOffset": 529884,
      "componentType": 5126,
      "count": 10927,
      "max": [
        0.9998615384101868,
        0.9999950528144836,
        0.9983873963356018
      ],
      "min": [
        -0.9998615384101868,
        -0.9995438456535339,
        -0.9986693263053894
      ],
      "type": "VEC3"
    },
    {
      "bufferView": 2,
      "byteOffset": 132920,
      "componentType": 5126,
      "count": 10927,
      "max": [
        0.992546021938324,
        0.9940840005874634
      ],
      "min": [
        0.007453999947756529,
        0.004991999827325344
      ],
      "type": "VEC2"
    },
    {
      "bufferView": 1,
      "byteOffset": 68472,
      "componentType": 5125,
      "count": 11430,
      "type": "SCALAR"
    },
    {
      "bufferView": 3,
      "byteOffset": 661008,
      "componentType": 5126,
      "count": 348,
      "max": [
        9.302619934082031,
        82.5886001586914,
        34.08909606933594
      ],
      "min": [
        -9.302619934082031,
        73.18499755859375,
        17.74610137939453
      ],
      "type": "VEC3"
    },
    {
      "bufferView": 3,
      "byteOffset": 665184,
      "componentType": 5126,
      "count": 348,
      "max": [
        0.9842571020126343,
        0.7715928554534912,
        0.773823082447052
      ],
      "min": [
        -0.9842571020126343,
        -0.3135550916194916,
        -0.4999227523803711
      ],
      "type": "VEC3"
    },
    {
      "bufferView": 2,
      "byteOffset": 220336,
      "componentType": 5126,
      "count": 348,
      "max": [
        0.49362999200820923,
        2.9533400535583496
      ],
      "min": [
        0.00636899983510375,
        2.8183400630950928
      ],
      "type": "VEC2"
    },
    {
      "bufferView": 1,
      "byteOffset": 114192,
      "componentType": 5125,
      "count": 348,
      "type": "SCALAR"
    },
    {
      "bufferView": 3,
      "byteOffset": 669360,
      "componentType": 5126,
      "count": 3156,
      "max": [
        25.015798568725586,
        68.9917984008789,
        16.913509368896484
      ],
      "min": [
        -25.01580047607422,
        24.486095428466797,
        -48.63350296020508
      ],
      "type": "VEC3"
    },
    {
      "bufferView": 3,
      "byteOffset": 707232,
      "componentType": 5126,
      "count": 3156,
      "max": [
        0.9996330738067627,
        0.989301323890686,
        0.9878416061401367
      ],
      "min": [
        -0.9996331334114075,
        -0.98380446434021,
        -0.967171847820282
      ],
      "type": "VEC3"
    },
    {
      "bufferView": 2,
      "byteOffset": 223120,
      "componentType": 5126,
      "count": 3156,
      "max": [
        0.7539060115814209,
        1.8803999423980713
      ],
      "min": [
        0.2460940033197403,
        1.0265100002288818
      ],
      "type": "VEC2"
    },
    {
      "bufferView": 1,
      "byteOffset": 115584,
      "componentType": 5125,
      "count": 3156,
      "type": "SCALAR"
    },
    {
      "bufferView": 5,
      "componentType": 5126,
      "count": 90,
      "max": [
        1.0,
        1.0,
        0.7215814590454102,
        0.0,
        0.8594456315040588,
        1.0,
        0.9999998807907104,
        0.0,
        0.9999998211860657,
        0.6224573254585266,
        1.0,
        0.0,
        51.201717376708984,
        51.371986389160156,
        81.54011535644531,
        1.0
      ],
      "min": [
        -0.9837250113487244,
        -1.0,
        -0.721584677696228,
        0.0,
        -1.0,
        -0.9007040858268738,
        -0.9955548048019409,
        0.0,
        -0.9978607296943665,
        -0.6224558353424072,
        -0.5028356909751892,
        0.0,
        -66.42195892333984,
        -51.371978759765625,
        -80.23176574707031,
        1.0
      ],
      "type": "MAT4"
    },
    {
      "bufferView": 0,
      "componentType": 5123,
      "count": 10927,
      "type": "VEC4"
    },
    {
      "bufferView": 4,
      "componentType": 5126,
      "count": 10927,
      "max": [
        1.0,
        0.5,
        0.33000001311302185,
        0.11999999731779099
      ],
      "min": [
        0.3400000035762787,
        0.0,
        0.0,
        0.0
      ],
      "type": "VEC4"
    },
    {
      "bufferView": 0,
      "byteOffset": 87416,
      "componentType": 5123,
      "count": 5340,
      "type": "VEC4"
    },
    {
      "bufferView": 4,
      "byteOffset": 174832,
      "componentType": 5126,
      "count": 5340,
      "max": [
        1.0,
        0.49494948983192444,
        0.30000001192092896,
        0.03999999910593033
      ],
      "min": [
        0.38999998569488525,
        0.0,
        0.0,
        0.0
      ],
      "type": "VEC4"
    },
    {
      "bufferView": 0,
      "byteOffset": 130136,
      "componentType": 5123,
      "count": 348,
      "type": "VEC4"
    },
    {
      "bufferView": 4,
      "byteOffset": 260272,
      "componentType": 5126,
      "count": 348,
      "max": [
        1.0,
        0.23999999463558197,
        0.0,
        0.0
      ],
      "min": [
        0.7599999904632568,
        0.0,
        0.0,
        0.0
      ],
      "type": "VEC4"
    },
    {
      "bufferView": 0,
      "byteOffset": 132920,
      "componentType": 5123,
      "count": 10927,
      "type": "VEC4"
    },
    {
      "bufferView": 4,
      "byteOffset": 265840,
      "componentType": 5126,
      "count": 10927,
      "max": [
        1.0,
        0.5,
        0.33000001311302185,
        0.11999999731779099
      ],
      "min": [
        0.3400000035762787,
        0.0,
        0.0,
        0.0
      ],
      "type": "VEC4"
    },
    {
      "bufferView": 0,
      "byteOffset": 220336,
      "componentType": 5123,
      "count": 348,
      "type": "VEC4"
    },
    {
      "bufferView": 4,
      "byteOffset": 440672,
      "componentType": 5126,
      "count": 348,
      "max": [
        1.0,
        0.23999999463558197,
        0.0,
        0.0
      ],
      "min": [
        0.7599999904632568,
        0.0,
        0.0,
        0.0
      ],
      "type": "VEC4"
    },
    {
      "bufferView": 0,
      "byteOffset": 223120,
      "componentType": 5123,
      "count": 3156,
      "type": "VEC4"
    },
    {
      "bufferView": 4,
      "byteOffset": 446240,
      "componentType": 5126,
      "count": 3156,
      "max": [
        1.0,
        0.5,
        0.0,
        0.0
      ],
      "min": [
        0.5,
        0.0,
        0.0,
        0.0
      ],
      "type": "VEC4"
    }
  ],
  "asset": {
    "extras": {
      "author": "nguyenlouis32 (https://sketchfab.com/nguyenlouis32)",
      "license": "CC-BY-4.0 (http://creativecommons.org/licenses/by/4.0/)",
      "source": "https://sketchfab.com/3d-models/talonflame-08e6753e5c504a44bf02ed4ceebfb393",
      "title": "Talonflame"
    },
    "generator": "Sketchfab-13.46.0",
    "version": "2.0"
  },
  "bufferViews": [
    {
      "buffer": 0,
      "byteLength": 248368,
      "byteStride": 8,
      "name": "shortBufferViews",
      "target": 34962
    },
    {
      "buffer": 0,
      "byteLength": 128208,
      "byteOffset": 248368,
      "name": "floatBufferViews",
      "target": 34963
    },
    {
      "buffer": 0,
      "byteLength": 248368,
      "byteOffset": 376576,
      "byteStride": 8,
      "name": "floatBufferViews",
      "target": 34962
    },
    {
      "buffer": 0,
      "byteLength": 745104,
      "byteOffset": 624944,
      "byteStride": 12,
      "name": "floatBufferViews",
      "target": 34962
    },
    {
      "buffer": 0,
      "byteLength": 496736,
      "byteOffset": 1370048,
      "byteStride": 16,
      "name": "floatBufferViews",
      "target": 34962
    },
    {
      "buffer": 0,
      "byteLength": 5760,
      "byteOffset": 1866784,
      "name": "floatBufferViews"
    }
  ],
  "buffers": [
    {
      "byteLength": 1872544,
      "uri": "scene.bin"
    }
  ],
  "images": [
    {
      "uri": "textures/Material_384_baseColor.png"
    },
    {
      "uri": "textures/Material_385_baseColor.png"
    },
    {
      "uri": "textures/Material_386_baseColor.png"
    }
  ],
  "materials": [
    {
      "doubleSided": true,
      "name": "Material_384",
      "pbrMetallicRoughness": {
        "baseColorTexture": {
          "index": 0
        },
        "metallicFactor": 0.0,
        "roughnessFactor": 0.8929713596497552
      }
    },
    {
      "doubleSided": true,
      "name": "Material_385",
      "pbrMetallicRoughness": {
        "baseColorTexture": {
          "index": 1
        },
        "metallicFactor": 0.0,
        "roughnessFactor": 0.8929713596497552
      }
    },
    {
      "doubleSided": true,
      "name": "Material_386",
      "pbrMetallicRoughness": {
        "baseColorTexture": {
          "index": 2
        },
        "metallicFactor": 0.0,
        "roughnessFactor": 0.8929713596497552
      }
    }
  ],
  "meshes": [
    {
      "name": "Talonflame_WingsOpen_Material #384_0",
      "primitives": [
        {
          "attributes": {
            "JOINTS_0": 25,
            "NORMAL": 1,
            "POSITION": 0,
            "TEXCOORD_0": 2,
            "WEIGHTS_0": 26
          },
          "indices": 3,
          "material": 0,
          "mode": 4
        }
      ]
    },
    {
      "name": "Talonflame_WingsOpen_Material #385_0",
      "primitives": [
        {
          "attributes": {
            "JOINTS_0": 27,
            "NORMAL": 5,
            "POSITION": 4,
            "TEXCOORD_0": 6,
            "WEIGHTS_0": 28
          },
          "indices": 7,
          "material": 1,
          "mode": 4
        }
      ]
    },
    {
      "name": "Talonflame_WingsOpen_Material #386_0",
      "primitives": [
        {
          "attributes": {
            "JOINTS_0": 29,
            "NORMAL": 9,
            "POSITION": 8,
            "TEXCOORD_0": 10,
            "WEIGHTS_0": 30
          },
          "indices": 11,
          "material": 2,
          "mode": 4
        }
      ]
    },
    {
      "name": "Talonflame_WingsClosed_Material #384_0",
      "primitives": [
        {
          "attributes": {
            "JOINTS_0": 31,
            "NORMAL": 13,
            "POSITION": 12,
            "TEXCOORD_0": 14,
            "WEIGHTS_0": 32
          },
          "indices": 15,
          "material": 0,
          "mode": 4
        }
      ]
    },
    {
      "name": "Talonflame_WingsClosed_Material #386_0",
      "primitives": [
        {
          "attributes": {
            "JOINTS_0": 33,
            "NORMAL": 17,
            "POSITION": 16,
            "TEXCOORD_0": 18,
            "WEIGHTS_0": 34
          },
          "indices": 19,
          "material": 2,
          "mode": 4
        }
      ]
    },
    {
      "name": "Talonflame_WingsClosed_Material #385_0",
      "primitives": [
        {
          "attributes": {
            "JOINTS_0": 35,
            "NORMAL": 21,
            "POSITION": 20,
            "TEXCOORD_0": 22,
            "WEIGHTS_0": 36
          },
          "indices": 23,
          "material": 1,
          "mode": 4
        }
      ]
    }
  ],
  "nodes": [
    {
      "children": [
        1
      ],
      "matrix": [
        1.0,
        0.0,
        0.0,
        0.0,
        0.0,
        2.220446049250313e-16,
        -1.0,
        0.0,
        0.0,
        1.0,
        2.220446049250313e-16,
        0.0,
        0.0,
        0.0,
        0.0,
        1.0
      ],
      "name": "Sketchfab_model"
    },
    {
      "children": [
        2
      ],
      "matrix": [
        0.02539999969303608,
        0.0,
        0.0,
        0.0,
        0.0,
        0.0,
        0.02539999969303608,
        0.0,
        0.0,
        -0.02539999969303608,
        0.0,
        0.0,
        0.0,
        0.0,
        0.0,
        1.0
      ],
      "name": "Talonflame.FBX"
    },
    {
      "children": [
        3
      ],
      "name": "RootNode"
    },
    {
      "children": [
        4,
        6,
        7,
        8,
        10,
        11,
        12,
        5,
        9
      ],
      "name": "Object_3"
    },
    {
      "children": [
        13
      ],
      "name": "_rootJoint"
    },
    {
      "matrix": [
        0.9999999999999999,
        0.0,
        2.3643167470239547e-33,
        0.0,
        2.3643167470239544e-33,
        6.123233995736765e-17,
        -0.9999999999999998,
        0.0,
        -1.4477264682066841e-49,
        0.9999999999999998,
        6.123233995736765e-17,
        0.0,
        0.0,
        8.881784197001252e-16,
        -8.881784197001252e-16,
        1.0
      ],
      "name": "Object_5"
    },
    {
      "mesh": 0,
      "name": "Object_6",
      "skin": 0
    },
    {
      "mesh": 1,
      "name": "Object_7",
      "skin": 0
    },
    {
      "mesh": 2,
      "name": "Object_8",
      "skin": 0
    },
    {
      "matrix": [
        0.9999999999999999,
        0.0,
        2.3643167470239547e-33,
        0.0,
        2.3643167470239544e-33,
        6.123233995736765e-17,
        -0.9999999999999998,
        0.0,
        -1.4477264682066841e-49,
        0.9999999999999998,
        6.123233995736765e-17,
        0.0,
        0.0,
        8.881784197001252e-16,
        -8.881784197001252e-16,
        1.0
      ],
      "name": "Object_9"
    },
    {
      "mesh": 3,
      "name": "Object_10",
      "skin": 0
    },
    {
      "mesh": 4,
      "name": "Object_11",
      "skin": 0
    },
    {
      "mesh": 5,
      "name": "Object_12",
      "skin": 0
    },
    {
      "children": [
        14,
        99,
        100,
        101
      ],
      "name": "pm0755_00_01",
      "rotation": [
        -1.5695823663008923e-07,
        -0.0,
        0.0,
        1.0
      ]
    },
    {
      "children": [
        15
      ],
      "name": "Origin_02"
    },
    {
      "children": [
        16,
        17,
        68
      ],
      "name": "Waist_03",
      "rotation": [
        0.0,
        0.0,
        0.7071080803871155,
        0.7071054577827454
      ],
      "translation": [
        0.0,
        49.695499420166016,
        0.0
      ]
    },
    {
      "name": "EndWaist_04",
      "rotation": [
        2.0194839173657902e-28,
        2.6469779601696886e-23,
        -7.330702165349757e-24,
        1.0
      ],
      "translation": [
        22.423999786376953,
        2.710505431213761e-20,
        0.0
      ]
    },
    {
      "children": [
        18,
        19,
        37,
        55
      ],
      "name": "Hips_05",
      "rotation": [
        5.293955920339377e-23,
        -1.6807990255130868e-28,
        1.0,
        1.2675908465098473e-06
      ]
    },
    {
      "name": "EndHips_06",
      "rotation": [
        -7.573064690121713e-29,
        -0.0,
        7.409325565190419e-23,
        1.0
      ],
      "translation": [
        24.210399627685547,
        -3.637978807091713e-12,
        1.8189894035458565e-12
      ]
    },
    {
      "children": [
        20,
        22
      ],
      "name": "LThigh_07",
      "rotation": [
        -2.493989015306397e-08,
        0.04987979307770729,
        4.993775064576766e-07,
        0.9987552165985107
      ],
      "translation": [
        12.352195739746094,
        9.535989761352539,
        -5.305890083312988
      ]
    },
    {
      "children": [
        21
      ],
      "name": "LFeeler_08",
      "rotation": [
        6.644503613983943e-09,
        0.013934550806879997,
        -4.76790802395044e-07,
        0.9999029040336609
      ],
      "scale": [
        1.000000238418579,
        1.0,
        1.000000238418579
      ],
      "translation": [
        20.577407836914063,
        -1.7763568394002505e-15,
        0.0
      ]
    },
    {
      "name": "EndLFeeler_09",
      "rotation": [
        7.105427357601002e-15,
        -2.7755575615628914e-17,
        -1.737079286361358e-23,
        1.0
      ],
      "translation": [
        7.203954696655273,
        0.0,
        2.86102294921875e-06
      ]
    },
    {
      "children": [
        23
      ],
      "name": "LLeg_010",
      "rotation": [
        2.1647529990787007e-07,
        -0.1443168967962265,
        1.4842970585959847e-06,
        0.9895315170288086
      ],
      "scale": [
        1.000000238418579,
        1.0,
        1.000000238418579
      ],
      "translation": [
        20.577407836914063,
        -1.7763568394002505e-15,
        0.0
      ]
    },
    {
      "children": [
        24,
        25,
        28,
        31,
        34
      ],
      "name": "LFoot_011",
      "rotation": [
        -1.1255433491896838e-05,
        -0.637365996837616,
        -9.188193871523254e-06,
        0.7705612182617188
      ],
      "scale": [
        1.0000001192092896,
        1.0,
        1.0000001192092896
      ],
      "translation": [
        11.261297225952148,
        -1.9073486328125e-06,
        0.0
      ]
    },
    {
      "name": "EndLFoot_012",
      "rotation": [
        -2.9126192590728507e-21,
        -5.820766091346741e-11,
        -7.993605777301127e-15,
        1.0
      ],
      "translation": [
        6.38395881652832,
        -2.86102294921875e-06,
        -9.5367431640625e-07
      ]
    },
    {
      "children": [
        26
      ],
      "name": "LToeA1_013",
      "rotation": [
        1.4499843928206246e-05,
        0.004665484186261892,
        -6.764950910564949e-08,
        0.9999892115592957
      ],
      "translation": [
        4.421187877655029,
        0.05206489562988281,
        -2.6683900356292725
      ]
    },
    {
      "children": [
        27
      ],
      "name": "LToeA2_014",
      "rotation": [
        -1.3593844414572231e-06,
        0.12546050548553467,
        -2.935967415851337e-07,
        0.9920986294746399
      ],
      "translation": [
        7.040648937225342,
        -1.7763568394002505e-15,
        7.152557373046875e-07
      ]
    },
    {
      "name": "EndLToeA2_015",
      "rotation": [
        1.5881867761018131e-22,
        -7.450580596923828e-09,
        2.842170943040401e-14,
        1.0
      ],
      "translation": [
        11.026300430297852,
        0.0,
        -2.384185791015625e-06
      ]
    },
    {
      "children": [
        29
      ],
      "name": "LToeB1_016",
      "rotation": [
        0.00013317933189682662,
        0.0005825870321132243,
        0.20269066095352173,
        0.9792426228523254
      ],
      "translation": [
        3.8118791580200195,
        3.1446704864501953,
        -2.834709882736206
      ]
    },
    {
      "children": [
        30
      ],
      "name": "LToeB2_017",
      "rotation": [
        3.3172753433063917e-10,
        0.14056892693042755,
        -2.336461024654568e-09,
        0.9900709986686707
      ],
      "translation": [
        5.533440589904785,
        -9.5367431640625e-07,
        0.0
      ]
    },
    {
      "name": "EndLToeB2_018",
      "rotation": [
        -5.365649702326891e-09,
        -2.9802315282267955e-08,
        -3.1072048045643896e-08,
        1.0
      ],
      "scale": [
        1.000000238418579,
        1.0000001192092896,
        1.0
      ],
      "translation": [
        9.819121360778809,
        -4.76837158203125e-05,
        -8.881784197001252e-16
      ]
    },
    {
      "children": [
        32
      ],
      "name": "LToeC1_019",
      "rotation": [
        -0.00010773868416436017,
        0.0005875331116840243,
        -0.20269128680229187,
        0.9792425036430359
      ],
      "scale": [
        1.0,
        0.9999998807907104,
        0.9999999403953552
      ],
      "translation": [
        3.8118691444396973,
        -3.002079963684082,
        -2.834690570831299
      ]
    },
    {
      "children": [
        33
      ],
      "name": "LToeC2_020",
      "rotation": [
        -1.8274948221375098e-09,
        0.14056889712810516,
        2.6665874841569348e-08,
        0.9900709986686707
      ],
      "scale": [
        1.000000238418579,
        1.0,
        0.9999999403953552
      ],
      "translation": [
        5.533440589904785,
        -4.76837158203125e-06,
        -5.9604644775390625e-06
      ]
    },
    {
      "name": "EndLToeC2_021",
      "rotation": [
        8.736606105230749e-09,
        -4.202543214454248e-18,
        -5.2464201871771365e-09,
        1.0
      ],
      "translation": [
        9.819091796875,
        3.8623809814453125e-05,
        -9.059906005859375e-06
      ]
    },
    {
      "children": [
        35
      ],
      "name": "LToeD1_022",
      "rotation": [
        0.03330187499523163,
        -1.359277666779235e-05,
        0.9994454383850098,
        7.663101087018731e-07
      ],
      "scale": [
        1.0000001192092896,
        1.0,
        1.0000001192092896
      ],
      "translation": [
        -1.8692407608032227,
        0.052066802978515625,
        -2.7455999851226807
      ]
    },
    {
      "children": [
        36
      ],
      "name": "LToeD2_023",
      "rotation": [
        4.782340852216294e-07,
        0.291837215423584,
        -1.4591854835543927e-07,
        0.9564681053161621
      ],
      "translation": [
        2.7350802421569824,
        -9.5367431640625e-07,
        0.0
      ]
    },
    {
      "name": "EndLToeD2_024",
      "rotation": [
        -1.1368683772161603e-13,
        -2.7755578924351364e-17,
        -1.1368685127414319e-13,
        1.0
      ],
      "scale": [
        0.9999998807907104,
        1.0,
        0.9999998807907104
      ],
      "translation": [
        8.818190574645996,
        -1.7763568394002505e-15,
        1.9073486328125e-06
      ]
    },
    {
      "children": [
        38,
        40
      ],
      "name": "RThigh_025",
      "rotation": [
        -2.493989015306397e-08,
        0.04987979307770729,
        4.993775064576766e-07,
        0.9987552165985107
      ],
      "translation": [
        12.352302551269531,
        -9.535989761352539,
        -5.305890083312988
      ]
    },
    {
      "children": [
        39
      ],
      "name": "RFeeler_026",
      "rotation": [
        6.644503613983943e-09,
        0.013934550806879997,
        -4.76790802395044e-07,
        0.9999029040336609
      ],
      "scale": [
        1.000000238418579,
        1.0,
        1.000000238418579
      ],
      "translation": [
        20.577404022216797,
        -2.86102294921875e-06,
        -1.9073486328125e-06
      ]
    },
    {
      "name": "EndRFeeler_027",
      "rotation": [
        7.105427357601002e-15,
        -2.7755575615628914e-17,
        -1.737079286361358e-23,
        1.0
      ],
      "translation": [
        7.203969955444336,
        1.7763568394002505e-15,
        -9.5367431640625e-07
      ]
    },
    {
      "children": [
        41
      ],
      "name": "RLeg_028",
      "rotation": [
        -2.7526260737431585e-07,
        -0.1443168967962265,
        -1.8873814724429394e-06,
        0.9895315170288086
      ],
      "scale": [
        1.000000238418579,
        1.0,
        1.000000238418579
      ],
      "translation": [
        20.577404022216797,
        -2.86102294921875e-06,
        -1.9073486328125e-06
      ]
    },
    {
      "children": [
        42,
        43,
        46,
        49,
        52
      ],
      "name": "RFoot_029",
      "rotation": [
        -8.754861482884735e-06,
        -0.637365996837616,
        -7.357587946899002e-06,
        0.7705612182617188
      ],
      "scale": [
        1.0000001192092896,
        1.0,
        1.0000001192092896
      ],
      "translation": [
        11.261299133300781,
        -5.7220458984375e-06,
        -6.198883056640625e-06
      ]
    },
    {
      "name": "EndRFoot_030",
      "rotation": [
        -7.4859845436049e-23,
        -5.820766091346741e-11,
        -8.88178366760566e-16,
        1.0
      ],
      "translation": [
        6.383960723876953,
        0.0,
        8.881784197001252e-16
      ]
    },
    {
      "children": [
        44
      ],
      "name": "RToeA1_031",
      "rotation": [
        1.5999830793589354e-05,
        0.004665484186261892,
        -7.464774398613372e-08,
        0.9999892115592957
      ],
      "translation": [
        4.421198844909668,
        -0.052062034606933594,
        -2.6683905124664307
      ]
    },
    {
      "children": [
        45
      ],
      "name": "RToeA2_032",
      "rotation": [
        -2.9553029889939353e-06,
        0.12546050548553467,
        -5.572814529841708e-07,
        0.9920986294746399
      ],
      "translation": [
        7.0406494140625,
        0.0,
        -1.0013580322265625e-05
      ]
    },
    {
      "name": "EndRToeA2_033",
      "rotation": [
        5.684341886080802e-14,
        -7.450580596923828e-09,
        4.499862532288471e-22,
        1.0
      ],
      "translation": [
        11.026298522949219,
        -4.76837158203125e-06,
        6.67572021484375e-06
      ]
    },
    {
      "children": [
        47
      ],
      "name": "RToeB1_034",
      "rotation": [
        -0.00010820566967595369,
        0.0005876297946088016,
        -0.2026912420988083,
        0.9792425036430359
      ],
      "scale": [
        1.0000001192092896,
        0.9999999403953552,
        0.9999999403953552
      ],
      "translation": [
        3.8118791580200195,
        -3.144650459289551,
        -2.834709405899048
      ]
    },
    {
      "children": [
        48
      ],
      "name": "RToeB2_035",
      "rotation": [
        4.2248319687132607e-07,
        0.14056894183158875,
        4.3287874973430007e-07,
        0.9900709986686707
      ],
      "scale": [
        0.9999998807907104,
        0.9999998807907104,
        1.0
      ],
      "translation": [
        5.533441543579102,
        -5.7220458984375e-06,
        5.0067901611328125e-06
      ]
    },
    {
      "name": "EndRToeB2_036",
      "rotation": [
        8.584267519040623e-09,
        -2.9802318834981634e-08,
        4.064633785105798e-08,
        1.0
      ],
      "scale": [
        1.0000001192092896,
        0.9999999403953552,
        1.0
      ],
      "translation": [
        9.819103240966797,
        2.002716064453125e-05,
        -7.152557373046875e-06
      ]
    },
    {
      "children": [
        50
      ],
      "name": "RToeC1_037",
      "rotation": [
        0.00013376999413594604,
        0.0005821988452225924,
        0.20269110798835754,
        0.9792425632476807
      ],
      "translation": [
        3.811880111694336,
        3.002079963684082,
        -2.834690570831299
      ]
    },
    {
      "children": [
        51
      ],
      "name": "RToeC2_00",
      "rotation": [
        -4.7559663585161616e-07,
        0.14056892693042755,
        9.163805714251794e-08,
        0.9900709986686707
      ],
      "translation": [
        5.533440589904785,
        4.291534423828125e-06,
        -7.152557373046875e-06
      ]
    },
    {
      "name": "EndRToeC2_038",
      "rotation": [
        4.767798600369133e-09,
        -3.1958897207039574e-17,
        -1.2524537851277273e-08,
        1.0
      ],
      "translation": [
        9.819089889526367,
        -3.910064697265625e-05,
        -2.86102294921875e-06
      ]
    },
    {
      "children": [
        53
      ],
      "name": "RToeD1_039",
      "rotation": [
        0.03330187499523163,
        -1.3043688340985682e-05,
        0.9994454383850098,
        -1.425915570507641e-06
      ],
      "scale": [
        1.0000001192092896,
        1.0,
        1.0000001192092896
      ],
      "translation": [
        -1.8692307472229004,
        -0.05206298828125,
        -2.7455995082855225
      ]
    },
    {
      "children": [
        54
      ],
      "name": "RToeD2_040",
      "rotation": [
        5.5533939805670757e-14,
        0.291837215423584,
        1.2770781814322972e-14,
        0.9564681053161621
      ],
      "translation": [
        2.735081672668457,
        1.7763568394002505e-15,
        -6.9141387939453125e-06
      ]
    },
    {
      "name": "EndRToeD2_041",
      "rotation": [
        5.684341886080802e-14,
        -2.7755578924351364e-17,
        -5.684342563707159e-14,
        1.0
      ],
      "scale": [
        0.9999998807907104,
        1.0,
        0.9999998807907104
      ],
      "translation": [
        8.818227767944336,
        2.86102294921875e-06,
        3.0994415283203125e-05
      ]
    },
    {
      "children": [
        56
      ],
      "name": "Tail1_042",
      "rotation": [
        0.8323788642883301,
        7.025076911304495e-07,
        -0.5542070269584656,
        1.055115831150033e-06
      ],
      "translation": [
        6.891170501708984,
        0.04597999155521393,
        -20.93899917602539
      ]
    },
    {
      "children": [
        57,
        58,
        61,
        63,
        66
      ],
      "name": "Tail2_043",
      "rotation": [
        -2.9116757561866574e-22,
        4.624284932271896e-44,
        -1.5881867761018131e-22,
        1.0
      ],
      "translation": [
        8.5692720413208,
        -7.450580596923828e-09,
        -3.814697265625e-06
      ]
    },
    {
      "name": "EndTail2_044",
      "rotation": [
        -3.705769144237564e-22,
        -2.7755575615628914e-17,
        -1.0285575569695016e-38,
        1.0
      ],
      "translation": [
        58.7003173828125,
        9.007751941680908e-06,
        3.814697265625e-06
      ]
    },
    {
      "children": [
        59
      ],
      "name": "LTailA1_045",
      "rotation": [
        0.012192001566290855,
        0.012880858965218067,
        -0.0817803218960762,
        0.9964925646781921
      ],
      "scale": [
        1.000000238418579,
        1.0000001192092896,
        1.0000001192092896
      ],
      "translation": [
        13.937199592590332,
        -4.814839839935303,
        1.360198974609375
      ]
    },
    {
      "children": [
        60
      ],
      "name": "LTailA2_046",
      "rotation": [
        -1.862645371275562e-09,
        -2.9802322387695313e-08,
        -5.551115784870273e-17,
        1.0
      ],
      "scale": [
        1.0,
        0.9999998807907104,
        0.9999998807907104
      ],
      "translation": [
        12.998804092407227,
        2.86102294921875e-06,
        0.0
      ]
    },
    {
      "name": "EndLTailA2_047",
      "rotation": [
        2.5849394142282115e-26,
        -2.7755575615628914e-17,
        9.313225746154785e-10,
        1.0
      ],
      "translation": [
        32.19229507446289,
        1.6748905181884766e-05,
        0.00011444091796875
      ]
    },
    {
      "children": [
        62
      ],
      "name": "LTailB_048",
      "rotation": [
        -0.029772989451885223,
        0.018642930313944817,
        -0.38145342469215393,
        0.9237203598022461
      ],
      "scale": [
        1.0000001192092896,
        1.0,
        0.9999999403953552
      ],
      "translation": [
        10.43089771270752,
        -11.98619556427002,
        1.4438591003417969
      ]
    },
    {
      "name": "EndLTailB_049",
      "rotation": [
        0.0,
        -0.0,
        -3.725290298461914e-09,
        1.0
      ],
      "translation": [
        31.70230484008789,
        -5.7220458984375e-06,
        -1.52587890625e-05
      ]
    },
    {
      "children": [
        64
      ],
      "name": "RTailA1_050",
      "rotation": [
        -0.012192487716674805,
        0.012880833819508553,
        0.08178024739027023,
        0.9964925646781921
      ],
      "scale": [
        1.000000238418579,
        1.0000001192092896,
        1.000000238418579
      ],
      "translation": [
        13.937302589416504,
        4.814838886260986,
        1.3601646423339844
      ]
    },
    {
      "children": [
        65
      ],
      "name": "RTailA2_051",
      "rotation": [
        -1.862645371275562e-09,
        3.122502918502743e-17,
        -1.862645371275562e-09,
        1.0
      ],
      "scale": [
        0.9999998211860657,
        0.9999998807907104,
        0.9999998807907104
      ],
      "translation": [
        12.998699188232422,
        8.225440979003906e-06,
        1.52587890625e-05
      ]
    },
    {
      "name": "EndRTailA2_052",
      "rotation": [
        6.938893490316922e-18,
        5.551115123125783e-17,
        5.587935447692871e-09,
        1.0
      ],
      "translation": [
        32.192386627197266,
        -3.921985626220703e-05,
        0.00011444091796875
      ]
    },
    {
      "children": [
        67
      ],
      "name": "RTailB_053",
      "rotation": [
        0.029772380366921425,
        0.018643267452716827,
        0.38145318627357483,
        0.9237204790115356
      ],
      "scale": [
        0.9999998211860657,
        0.9999998807907104,
        1.000000238418579
      ],
      "translation": [
        10.43100643157959,
        11.986204147338867,
        1.4438285827636719
      ]
    },
    {
      "name": "EndRTailB_054",
      "rotation": [
        -1.9428887049072478e-16,
        1.4901155864777138e-08,
        1.4901155864777138e-08,
        1.0
      ],
      "scale": [
        1.0000003576278687,
        1.0,
        1.0000003576278687
      ],
      "translation": [
        31.70231056213379,
        4.291534423828125e-05,
        4.1961669921875e-05
      ]
    },
    {
      "children": [
        69,
        75,
        78,
        90,
        96
      ],
      "name": "Spine_055",
      "rotation": [
        1.5536432512597816e-22,
        -0.42279839515686035,
        3.3300658708637704e-22,
        0.9062237739562988
      ]
    },
    {
      "children": [
        70
      ],
      "name": "LShoulder_056",
      "rotation": [
        -0.31345492601394653,
        0.5237364172935486,
        -0.5350543856620789,
        0.5840917229652405
      ],
      "scale": [
        1.0000001192092896,
        1.0000001192092896,
        0.9999998807907104
      ],
      "translation": [
        16.167804718017578,
        -3.218290090560913,
        -1.4304924011230469
      ]
    },
    {
      "children": [
        71
      ],
      "name": "LArm_057",
      "rotation": [
        -0.04863014072179794,
        -0.025970028713345528,
        -0.06110220029950142,
        0.9966078400611877
      ],
      "scale": [
        0.9999999403953552,
        0.9999999403953552,
        1.0
      ],
      "translation": [
        11.404497146606445,
        3.814697265625e-06,
        0.0
      ]
    },
    {
      "children": [
        72
      ],
      "name": "LForeArm_058",
      "rotation": [
        -1.9302914822105777e-08,
        -0.20648542046546936,
        -1.9302914822105777e-08,
        0.9784497022628784
      ],
      "scale": [
        1.0,
        1.0000001192092896,
        0.9999999403953552
      ],
      "translation": [
        20.163198471069336,
        -7.62939453125e-06,
        7.62939453125e-06
      ]
    },
    {
      "children": [
        73
      ],
      "name": "LHand_059",
      "rotation": [
        -0.023809822276234627,
        0.432068407535553,
        -0.049507614225149155,
        0.9001660943031311
      ],
      "scale": [
        0.9999998211860657,
        0.9999996423721313,
        0.9999998807907104
      ],
      "translation": [
        24.010501861572266,
        7.62939453125e-06,
        -7.62939453125e-06
      ]
    },
    {
      "children": [
        74
      ],
      "name": "LFinger_060",
      "rotation": [
        -3.0281274376875444e-08,
        0.10246092826128006,
        3.119063007872569e-09,
        0.9947370290756226
      ],
      "scale": [
        1.0,
        1.0,
        1.000000238418579
      ],
      "translation": [
        31.383895874023438,
        0.0,
        7.62939453125e-06
      ]
    },
    {
      "name": "EndLFinger_061",
      "rotation": [
        1.4901161193847656e-08,
        1.4901161193847656e-08,
        1.4901161193847656e-08,
        1.0
      ],
      "scale": [
        1.0,
        1.0,
        0.9999999403953552
      ],
      "translation": [
        68.47310638427734,
        -3.814697265625e-06,
        1.52587890625e-05
      ]
    },
    {
      "children": [
        76
      ],
      "name": "LWingClose1_062",
      "rotation": [
        0.030903160572052002,
        -0.08220840990543365,
        0.9928845167160034,
        -0.080418661236763
      ],
      "scale": [
        1.000000238418579,
        1.0,
        1.0000001192092896
      ],
      "translation": [
        20.36270523071289,
        -13.975698471069336,
        -3.2404823303222656
      ]
    },
    {
      "children": [
        77
      ],
      "name": "LWingClose2_063",
      "rotation": [
        0.04042936488986015,
        0.19970320165157318,
        -0.1540617197751999,
        0.9668242335319519
      ],
      "scale": [
        0.9999998211860657,
        1.0,
        0.9999997615814209
      ],
      "translation": [
        33.67040252685547,
        5.7220458984375e-06,
        7.105427357601002e-15
      ]
    },
    {
      "name": "EndLWingClose2_064",
      "rotation": [
        2.7939677238464355e-09,
        -4.109126564592307e-17,
        -4.773028638993537e-09,
        1.0
      ],
      "scale": [
        0.9999999403953552,
        1.0,
        1.0
      ],
      "translation": [
        44.41570281982422,
        7.62939453125e-06,
        0.0
      ]
    },
    {
      "children": [
        79
      ],
      "name": "Neck_065",
      "rotation": [
        2.37478792056503e-13,
        0.16743271052837372,
        -4.0331046878908094e-14,
        0.9858835339546204
      ],
      "scale": [
        1.000000238418579,
        1.0,
        1.000000238418579
      ],
      "translation": [
        20.920001983642578,
        0.0,
        3.814697265625e-06
      ]
    },
    {
      "children": [
        80,
        81,
        85
      ],
      "name": "Head_066",
      "rotation": [
        2.5827139092746837e-14,
        -0.11079997569322586,
        2.3166172214046654e-13,
        0.9938427209854126
      ],
      "translation": [
        9.812973022460938,
        -1.00000761449337e-06,
        -5.7220458984375e-06
      ]
    },
    {
      "name": "EndHead_067",
      "rotation": [
        1.6135070654577454e-22,
        -5.551115123125783e-17,
        2.112503366083576e-22,
        1.0
      ],
      "translation": [
        19.677597045898438,
        -9.999785106629133e-07,
        7.62939453125e-06
      ]
    },
    {
      "children": [
        82
      ],
      "name": "FeelerA1_068",
      "rotation": [
        -0.4458853006362915,
        -9.920121328832465e-07,
        0.8950902223587036,
        -1.3472226783051156e-06
      ],
      "scale": [
        0.9999998211860657,
        1.0,
        0.9999998211860657
      ],
      "translation": [
        3.6075439453125,
        -9.999203030019999e-07,
        -8.488636016845703
      ]
    },
    {
      "children": [
        83
      ],
      "name": "FeelerA2_069",
      "rotation": [
        4.999798193239258e-07,
        -0.00893628504127264,
        4.467998415691454e-09,
        0.9999600648880005
      ],
      "translation": [
        12.982101440429688,
        -9.999494068324566e-07,
        -7.62939453125e-06
      ]
    },
    {
      "children": [
        84
      ],
      "name": "FeelerA3_070",
      "rotation": [
        -2.2807572345497074e-13,
        0.01992018148303032,
        3.297156045910764e-14,
        0.9998015761375427
      ],
      "translation": [
        11.740898132324219,
        -1.0000949259847403e-06,
        1.52587890625e-05
      ]
    },
    {
      "name": "EndFeelerA3_071",
      "rotation": [
        -2.2737367544323206e-13,
        1.4901161193847656e-08,
        -2.8421706042272218e-14,
        1.0
      ],
      "translation": [
        15.265504837036133,
        1.0000658221542835e-06,
        -1.4210854715202004e-14
      ]
    },
    {
      "children": [
        86,
        88
      ],
      "name": "RootJaw_072",
      "rotation": [
        3.9210978791041397e-22,
        -0.22203008830547333,
        4.14975703798263e-23,
        0.9750398397445679
      ],
      "scale": [
        0.9999999403953552,
        1.0,
        0.9999999403953552
      ],
      "translation": [
        5.6943511962890625,
        2.9103830456733704e-11,
        3.410776138305664
      ]
    },
    {
      "children": [
        87
      ],
      "name": "LowerJaw_073",
      "rotation": [
        0.823524534702301,
        7.190802762124804e-07,
        0.567280650138855,
        -1.0438927802169928e-06
      ],
      "scale": [
        1.0000001192092896,
        1.0,
        1.0000001192092896
      ],
      "translation": [
        4.329414367675781,
        -2.710505431213761e-20,
        1.1727828979492188
      ]
    },
    {
      "name": "EndLowerJaw_074",
      "rotation": [
        -1.0587911840678754e-22,
        2.407412430484045e-35,
        -2.2737367544323206e-13,
        1.0
      ],
      "translation": [
        6.466485977172852,
        2.9103830456733704e-11,
        0.0
      ]
    },
    {
      "children": [
        89
      ],
      "name": "UpperJaw_075",
      "rotation": [
        -4.584977375543531e-07,
        -0.2746660113334656,
        -1.3097078976898047e-07,
        0.9615396857261658
      ],
      "scale": [
        1.000000238418579,
        1.0,
        1.000000238418579
      ],
      "translation": [
        4.777252197265625,
        -2.9103830456733704e-11,
        3.814697265625e-06
      ]
    },
    {
      "name": "EndUpperJaw_076",
      "rotation": [
        -1.3234889800848443e-23,
        -1.3877787807814457e-17,
        3.970466940254533e-23,
        1.0
      ],
      "translation": [
        10.027400970458984,
        -1.000043994281441e-06,
        -7.62939453125e-06
      ]
    },
    {
      "children": [
        91
      ],
      "name": "RShoulder_077",
      "rotation": [
        0.31345486640930176,
        0.5237364172935486,
        0.5350543260574341,
        0.5840916633605957
      ],
      "scale": [
        1.0,
        0.9999999403953552,
        1.0
      ],
      "translation": [
        16.167808532714844,
        3.218290090560913,
        -1.4305038452148438
      ]
    },
    {
      "children": [
        92
      ],
      "name": "RArm_078",
      "rotation": [
        0.0486302450299263,
        -0.02597002685070038,
        0.06110217049717903,
        0.9966078400611877
      ],
      "scale": [
        0.9999998807907104,
        1.000000238418579,
        1.0000003576278687
      ],
      "translation": [
        11.404504776000977,
        -3.4332275390625e-05,
        3.814697265625e-05
      ]
    },
    {
      "children": [
        93
      ],
      "name": "RForeArm_079",
      "rotation": [
        7.966920586633032e-17,
        -0.20648540556430817,
        -2.573749314901594e-17,
        0.9784497022628784
      ],
      "scale": [
        0.9999998211860657,
        1.0,
        1.0
      ],
      "translation": [
        20.163190841674805,
        7.62939453125e-05,
        -4.57763671875e-05
      ]
    },
    {
      "children": [
        94
      ],
      "name": "RHand_080",
      "rotation": [
        0.023809732869267464,
        0.43206843733787537,
        0.04950771853327751,
        0.9001660346984863
      ],
      "scale": [
        0.9999999403953552,
        0.9999997615814209,
        0.9999999403953552
      ],
      "translation": [
        24.010498046875,
        -3.814697265625e-05,
        1.33514404296875e-05
      ]
    },
    {
      "children": [
        95
      ],
      "name": "RFinger_081",
      "rotation": [
        3.028127792958912e-08,
        0.10246090590953827,
        -3.119062563783359e-09,
        0.9947370290756226
      ],
      "scale": [
        0.9999998211860657,
        0.9999998807907104,
        1.0
      ],
      "translation": [
        31.384014129638672,
        1.1444091796875e-05,
        5.340576171875e-05
      ]
    },
    {
      "name": "EndRFinger_082",
      "rotation": [
        -4.4703490686970326e-08,
        -6.661340265333307e-16,
        1.4901164746561335e-08,
        1.0
      ],
      "scale": [
        0.9999998211860657,
        0.9999998807907104,
        0.9999998807907104
      ],
      "translation": [
        68.47280883789063,
        -3.814697265625e-05,
        -0.00022125244140625
      ]
    },
    {
      "children": [
        97
      ],
      "name": "RWingClose1_083",
      "rotation": [
        0.03090316615998745,
        0.08220839500427246,
        0.9928845167160034,
        0.0804186761379242
      ],
      "scale": [
        1.0,
        0.9999999403953552,
        1.0000001192092896
      ],
      "translation": [
        20.362804412841797,
        13.975702285766602,
        -3.2405166625976563
      ]
    },
    {
      "children": [
        98
      ],
      "name": "RWingClose2_084",
      "rotation": [
        -0.04042980819940567,
        0.1997031271457672,
        0.15406182408332825,
        0.9668242335319519
      ],
      "translation": [
        33.670509338378906,
        -3.62396240234375e-05,
        1.1444091796875e-05
      ]
    },
    {
      "name": "EndRWingClose2_085",
      "rotation": [
        1.0011717677116394e-08,
        -4.4506489254362606e-17,
        -7.217748176913119e-09,
        1.0
      ],
      "scale": [
        1.000000238418579,
        1.0,
        1.000000238418579
      ],
      "translation": [
        44.41572952270508,
        1.9073486328125e-06,
        1.1444091796875e-05
      ]
    },
    {
      "name": "pm0755_00_BodySkin_086"
    },
    {
      "name": "pm0755_00_WingLSkin_087"
    },
    {
      "name": "pm0755_00_WingRSkin_088"
    }
  ],
  "samplers": [
    {
      "magFilter": 9729,
      "minFilter": 9987,
      "wrapS": 10497,
      "wrapT": 10497
    }
  ],
  "scene": 0,
  "scenes": [
    {
      "name": "Sketchfab_Scene",
      "nodes": [
        0
      ]
    }
  ],
  "skins": [
    {
      "inverseBindMatrices": 24,
      "joints": [
        4,
        13,
        14,
        15,
        16,
        17,
        18,
        19,
        20,
        21,
        22,
        23,
        24,
        25,
        26,
        27,
        28,
        29,
        30,
        31,
        32,
        33,
        34,
        35,
        36,
        37,
        38,
        39,
        40,
        41,
        42,
        43,
        44,
        45,
        46,
        47,
        48,
        49,
        50,
        51,
        52,
        53,
        54,
        55,
        56,
        57,
        58,
        59,
        60,
        61,
        62,
        63,
        64,
        65,
        66,
        67,
        68,
        69,
        70,
        71,
        72,
        73,
        74,
        75,
        76,
        77,
        78,
        79,
        80,
        81,
        82,
        83,
        84,
        85,
        86,
        87,
        88,
        89,
        90,
        91,
        92,
        93,
        94,
        95,
        96,
        97,
        98,
        99,
        100,
        101
      ],
      "skeleton": 4
    }
  ],
  "textures": [
    {
      "sampler": 0,
      "source": 0
    },
    {
      "sampler": 0,
      "source": 1
    },
    {
      "sampler": 0,
      "source": 2
    }
  ]
}
