{
    "asset" : {
        "generator" : "Khronos glTF Blender I/O v1.0.5",
        "version" : "2.0"
    },
    "scene" : 0,
    "scenes" : [
        {
            "name" : "Scene",
            "nodes" : [
                0,
                1,
                48
            ]
        }
    ],
    "nodes" : [
        {
            "name" : "Light",
            "rotation" : [
                0.16907575726509094,
                0.7558803558349609,
                -0.27217137813568115,
                0.570947527885437
            ],
            "translation" : [
                4.076245307922363,
                5.903861999511719,
                -1.0054539442062378
            ]
        },
        {
            "name" : "Camera",
            "rotation" : [
                0.483536034822464,
                0.33687159419059753,
                -0.20870360732078552,
                0.7804827094078064
            ],
            "translation" : [
                7.358891487121582,
                4.958309173583984,
                6.925790786743164
            ]
        },
        {
            "name" : "head jaw",
            "rotation" : [
                7.45057526785331e-09,
                5.720856677271513e-09,
                1.4210854715202004e-14,
                1
            ],
            "translation" : [
                5.684341886080802e-14,
                0.06372594833374023,
                -3.1508129438861943e-13
            ]
        },
        {
            "children" : [
                2
            ],
            "name" : "head neck upper",
            "rotation" : [
                -1.6929183743741305e-07,
                0.878047525882721,
                0.4785735011100769,
                3.8030495375096507e-07
            ],
            "scale" : [
                1,
                0.9999997615814209,
                1
            ],
            "translation" : [
                -1.056932319443149e-13,
                0.14178265631198883,
                2.745931482195374e-09
            ]
        },
        {
            "children" : [
                3
            ],
            "name" : "head neck lower",
            "rotation" : [
                -8.118897198983177e-08,
                0.9997314810752869,
                -0.023172935470938683,
                1.9382196114747785e-05
            ],
            "scale" : [
                1,
                0.9999997019767761,
                1
            ],
            "translation" : [
                8.437094152213831e-07,
                0.5325901508331299,
                -0.02470320649445057
            ]
        },
        {
            "name" : "LHand",
            "rotation" : [
                8.195638656616211e-08,
                4.842877388000488e-08,
                1.2293457984924316e-07,
                1
            ],
            "translation" : [
                -5.960464477539063e-08,
                0.13849066197872162,
                0
            ]
        },
        {
            "children" : [
                5
            ],
            "name" : "LForeArm",
            "rotation" : [
                -0.03254013881087303,
                -0.10764329135417938,
                0.06120581552386284,
                0.9917701482772827
            ],
            "scale" : [
                1.0000001192092896,
                1,
                1
            ],
            "translation" : [
                -6.891787052154541e-08,
                0.13318827748298645,
                -1.4901161193847656e-08
            ]
        },
        {
            "children" : [
                6
            ],
            "name" : "LArm",
            "rotation" : [
                -0.13873091340065002,
                -0.21788769960403442,
                0.023375345394015312,
                0.9657806754112244
            ],
            "scale" : [
                0.9999999403953552,
                0.9999999403953552,
                0.9999999403953552
            ],
            "translation" : [
                2.9802322387695312e-08,
                0.325368732213974,
                -2.2351741790771484e-08
            ]
        },
        {
            "children" : [
                7
            ],
            "name" : "LShoulder",
            "rotation" : [
                0.5313271880149841,
                0.7990312576293945,
                -0.01851055584847927,
                0.2808877229690552
            ],
            "scale" : [
                1,
                0.9999998211860657,
                1
            ],
            "translation" : [
                0.17804470658302307,
                0.12125954031944275,
                0.01235873531550169
            ]
        },
        {
            "name" : "RHand",
            "rotation" : [
                3.725290298461914e-09,
                -7.450578820566989e-09,
                -3.725290298461914e-08,
                1
            ],
            "scale" : [
                1,
                1,
                1.0000001192092896
            ],
            "translation" : [
                1.4901161193847656e-08,
                0.1384909749031067,
                7.450580596923828e-08
            ]
        },
        {
            "children" : [
                9
            ],
            "name" : "RForeArm",
            "rotation" : [
                -0.03254618123173714,
                0.10765045881271362,
                -0.06120521202683449,
                0.9917691946029663
            ],
            "scale" : [
                0.9999999403953552,
                0.9999999403953552,
                0.9999998807907104
            ],
            "translation" : [
                1.7695128917694092e-08,
                0.1331876963376999,
                -4.470348358154297e-08
            ]
        },
        {
            "children" : [
                10
            ],
            "name" : "RArm",
            "rotation" : [
                -0.13872824609279633,
                0.21788501739501953,
                -0.023377081379294395,
                0.9657816886901855
            ],
            "scale" : [
                1,
                0.9999999403953552,
                1
            ],
            "translation" : [
                -2.9802322387695312e-08,
                0.32536953687667847,
                3.725290298461914e-08
            ]
        },
        {
            "children" : [
                11
            ],
            "name" : "RShoulder",
            "rotation" : [
                0.5313264727592468,
                -0.7990422248840332,
                0.018531346693634987,
                0.2808564007282257
            ],
            "scale" : [
                1,
                0.9999998211860657,
                1
            ],
            "translation" : [
                -0.17804555594921112,
                0.12125930935144424,
                0.012344520539045334
            ]
        },
        {
            "children" : [
                4,
                8,
                12
            ],
            "name" : "Spine2",
            "rotation" : [
                0.585699737071991,
                0.44590434432029724,
                -0.010324367322027683,
                0.6767706871032715
            ],
            "scale" : [
                0.9999999403953552,
                1.0000001192092896,
                0.9999999403953552
            ],
            "translation" : [
                0.14660196006298065,
                0.10109042376279831,
                0.2268558293581009
            ]
        },
        {
            "name" : "FeelerA2",
            "rotation" : [
                -4.749745841081676e-08,
                -3.725290742551124e-09,
                -5.8673329306202504e-08,
                1
            ],
            "scale" : [
                0.9999999403953552,
                0.9999998807907104,
                0.9999998807907104
            ],
            "translation" : [
                2.9802322387695312e-08,
                0.28918612003326416,
                5.960464477539063e-08
            ]
        },
        {
            "children" : [
                14
            ],
            "name" : "FeelerA1",
            "rotation" : [
                -0.007931463420391083,
                -0.26202982664108276,
                -0.3765135407447815,
                0.8885467052459717
            ],
            "scale" : [
                1,
                0.9999998211860657,
                1
            ],
            "translation" : [
                0.1399143487215042,
                0.10573345422744751,
                -0.01348373293876648
            ]
        },
        {
            "name" : "FeelerB2",
            "rotation" : [
                1.4901161193847656e-08,
                -1.0244548320770264e-07,
                7.171183824539185e-08,
                1
            ],
            "scale" : [
                1,
                0.9999999403953552,
                1
            ],
            "translation" : [
                3.725290298461914e-09,
                0.3792056143283844,
                -2.9802322387695312e-08
            ]
        },
        {
            "children" : [
                16
            ],
            "name" : "FeelerB1",
            "rotation" : [
                0.26834648847579956,
                0.19363977015018463,
                0.21974140405654907,
                0.9177186489105225
            ],
            "scale" : [
                0.9999998807907104,
                1.0000001192092896,
                1
            ],
            "translation" : [
                -0.07899454236030579,
                0.13003037869930267,
                0.068031907081604
            ]
        },
        {
            "name" : "FeelerC2",
            "rotation" : [
                5.4948024796885875e-08,
                7.4505797087454084e-09,
                1.862644971595273e-08,
                1
            ],
            "scale" : [
                1.0000001192092896,
                1.0000001192092896,
                1.0000001192092896
            ],
            "translation" : [
                8.940696716308594e-08,
                0.24470598995685577,
                -1.1548399925231934e-07
            ]
        },
        {
            "children" : [
                18
            ],
            "name" : "FeelerC1",
            "rotation" : [
                -0.3471072018146515,
                0.13758842647075653,
                0.27599281072616577,
                0.8856716156005859
            ],
            "scale" : [
                1,
                0.9999998807907104,
                1
            ],
            "translation" : [
                -0.06091982126235962,
                0.13208776712417603,
                -0.05454809591174126
            ]
        },
        {
            "children" : [
                15,
                17,
                19
            ],
            "name" : "Feeler2",
            "rotation" : [
                0.037927769124507904,
                0.07794984430074692,
                0.10407964140176773,
                0.9907839298248291
            ],
            "scale" : [
                1.0000001192092896,
                1,
                1
            ],
            "translation" : [
                2.9802322387695312e-08,
                0.0971100851893425,
                7.450580596923828e-09
            ]
        },
        {
            "children" : [
                20
            ],
            "name" : "Feeler1",
            "rotation" : [
                -0.2676717936992645,
                0.056390028446912766,
                0.2195383757352829,
                0.9364693760871887
            ],
            "scale" : [
                0.9999998211860657,
                0.9999999403953552,
                0.9999999403953552
            ],
            "translation" : [
                -0.146602064371109,
                0.652719259262085,
                -0.2268558144569397
            ]
        },
        {
            "children" : [
                13,
                21
            ],
            "name" : "Spine1",
            "rotation" : [
                5.011477242078399e-07,
                0.6901700496673584,
                0.5698592662811279,
                0.4460110664367676
            ],
            "scale" : [
                1.0000001192092896,
                1,
                0.9999998211860657
            ],
            "translation" : [
                -6.145844483963813e-15,
                4.70288341603009e-09,
                1.3485289329651096e-08
            ]
        },
        {
            "name" : "LFoot",
            "rotation" : [
                -1.30385160446167e-08,
                -2.868473529815674e-07,
                1.8626449271863521e-09,
                1
            ],
            "scale" : [
                1.0000001192092896,
                1.0000001192092896,
                1
            ],
            "translation" : [
                2.9802322387695312e-08,
                0.1549912691116333,
                0
            ]
        },
        {
            "children" : [
                23
            ],
            "name" : "LLeg",
            "rotation" : [
                -0.07471180707216263,
                -0.09475653618574142,
                0.03940541669726372,
                0.9919105768203735
            ],
            "scale" : [
                1,
                1.0000001192092896,
                1
            ],
            "translation" : [
                -2.0489096641540527e-08,
                0.13100408017635345,
                5.960464477539063e-08
            ]
        },
        {
            "children" : [
                24
            ],
            "name" : "LThigh",
            "rotation" : [
                -0.12464187294244766,
                0.10142826288938522,
                -0.7124106287956238,
                0.6831163167953491
            ],
            "scale" : [
                0.9999998211860657,
                0.9999999403953552,
                0.9999998807907104
            ],
            "translation" : [
                0.4352376461029053,
                0.2563742399215698,
                -0.037467557936906815
            ]
        },
        {
            "name" : "RFoot",
            "rotation" : [
                -4.6566128730773926e-08,
                2.682209014892578e-07,
                -3.725290298461914e-09,
                1
            ],
            "translation" : [
                1.4901161193847656e-08,
                0.15499110519886017,
                0
            ]
        },
        {
            "children" : [
                26
            ],
            "name" : "RLeg",
            "rotation" : [
                -0.07471079379320145,
                0.09475459158420563,
                -0.03940263018012047,
                0.991910994052887
            ],
            "scale" : [
                0.9999999403953552,
                1.0000001192092896,
                0.9999998807907104
            ],
            "translation" : [
                1.30385160446167e-08,
                0.1310039907693863,
                1.4901161193847656e-08
            ]
        },
        {
            "children" : [
                27
            ],
            "name" : "RThigh",
            "rotation" : [
                -0.12464241683483124,
                -0.10142812132835388,
                0.712410032749176,
                0.6831167936325073
            ],
            "scale" : [
                0.9999998211860657,
                0.9999998807907104,
                0.9999999403953552
            ],
            "translation" : [
                -0.4352378249168396,
                0.2563748359680176,
                -0.0374675951898098
            ]
        },
        {
            "name" : "Tail3",
            "rotation" : [
                -1.7765126934625453e-15,
                -9.681586587116653e-19,
                8.52647962542967e-14,
                1
            ],
            "translation" : [
                4.106437412332298e-14,
                0.3183910846710205,
                1.1303654900984839e-08
            ]
        },
        {
            "children" : [
                29
            ],
            "name" : "Tail2",
            "rotation" : [
                -4.2605392991390545e-08,
                -2.763326134753996e-13,
                1.136865395660186e-13,
                1
            ],
            "scale" : [
                1,
                0.9999998807907104,
                1
            ],
            "translation" : [
                2.0855441939388042e-14,
                0.283576637506485,
                2.478969918229268e-09
            ]
        },
        {
            "children" : [
                30
            ],
            "name" : "Tail1",
            "rotation" : [
                0.1409521996974945,
                -9.519094845700238e-08,
                -1.8131770218587917e-07,
                0.9900164008140564
            ],
            "scale" : [
                1,
                0.9999999403953552,
                0.9999999403953552
            ],
            "translation" : [
                2.0549747148379538e-07,
                0.6478123068809509,
                0.07493498921394348
            ]
        },
        {
            "children" : [
                25,
                28,
                31
            ],
            "name" : "Hips",
            "rotation" : [
                -1.0241998182891621e-07,
                -0.14095275104045868,
                0.9900163412094116,
                6.161213761401996e-09
            ],
            "scale" : [
                1,
                1.0000003576278687,
                1.0000038146972656
            ],
            "translation" : [
                -2.390537210729144e-14,
                1.9604073031587177e-08,
                -4.611935722209637e-08
            ]
        },
        {
            "children" : [
                22,
                32
            ],
            "name" : "Waist",
            "rotation" : [
                3.318291703635623e-07,
                0.5514029264450073,
                0.8342391848564148,
                -4.360238108347403e-07
            ],
            "scale" : [
                1,
                0.9999996423721313,
                0.9999998211860657
            ],
            "translation" : [
                -1.7763568394002505e-15,
                0.5772895216941833,
                -1.4901161193847656e-08
            ]
        },
        {
            "children" : [
                33
            ],
            "name" : "Origin",
            "rotation" : [
                3.646574242566203e-08,
                0.5514029264450073,
                0.8342390656471252,
                2.4102588369601108e-08
            ],
            "scale" : [
                1,
                0.9999998211860657,
                0.9999999403953552
            ]
        },
        {
            "name" : "pm0389_00_FeelerSkin",
            "rotation" : [
                0,
                0,
                1,
                0
            ]
        },
        {
            "name" : "pm0389_00_LegSkin",
            "rotation" : [
                0,
                0,
                1,
                0
            ]
        },
        {
            "name" : "pm0389_00_BodyBSkin",
            "rotation" : [
                0,
                0,
                1,
                0
            ]
        },
        {
            "name" : "pm0389_00_BodyASkin",
            "rotation" : [
                0,
                0,
                1,
                0
            ]
        },
        {
            "children" : [
                34,
                35,
                36,
                37,
                38
            ],
            "name" : "pm0389_00",
            "rotation" : [
                0,
                0.7071068286895752,
                0.7071068286895752,
                0
            ]
        },
        {
            "mesh" : 0,
            "name" : "1_OptMesh_0_0_0.1",
            "skin" : 0
        },
        {
            "mesh" : 1,
            "name" : "1_OptMesh_1_0_0.1",
            "skin" : 0
        },
        {
            "mesh" : 2,
            "name" : "1_OptMesh_2_0_0.1",
            "skin" : 0
        },
        {
            "mesh" : 3,
            "name" : "1_OptMesh_3_0_0.1",
            "skin" : 0
        },
        {
            "mesh" : 4,
            "name" : "1_OptMesh_4_0_0.1",
            "skin" : 0
        },
        {
            "mesh" : 5,
            "name" : "1_OptMesh_5_0_0.1",
            "skin" : 0
        },
        {
            "mesh" : 6,
            "name" : "1_OptMesh_6_0_0.1",
            "skin" : 0
        },
        {
            "mesh" : 7,
            "name" : "1_OptMesh_7_0_0.1",
            "skin" : 0
        },
        {
            "children" : [
                40,
                41,
                42,
                43,
                44,
                45,
                46,
                47,
                39
            ],
            "name" : "Armature"
        }
    ],
    "materials" : [
        {
            "doubleSided" : true,
            "name" : "1_OptMesh_0_0_0.1",
            "pbrMetallicRoughness" : {
                "baseColorTexture" : {
                    "index" : 0,
                    "texCoord" : 0
                },
                "metallicFactor" : 0,
                "roughnessFactor" : 0.5
            }
        },
        {
            "doubleSided" : true,
            "name" : "1_OptMesh_1_0_0.1",
            "pbrMetallicRoughness" : {
                "baseColorTexture" : {
                    "index" : 1,
                    "texCoord" : 0
                },
                "metallicFactor" : 0,
                "roughnessFactor" : 0.5
            }
        },
        {
            "doubleSided" : true,
            "name" : "1_OptMesh_2_0_0.1",
            "pbrMetallicRoughness" : {
                "baseColorTexture" : {
                    "index" : 2,
                    "texCoord" : 0
                },
                "metallicFactor" : 0,
                "roughnessFactor" : 0.5
            }
        },
        {
            "doubleSided" : true,
            "name" : "1_OptMesh_3_0_0.1",
            "pbrMetallicRoughness" : {
                "baseColorTexture" : {
                    "index" : 3,
                    "texCoord" : 0
                },
                "metallicFactor" : 0,
                "roughnessFactor" : 0.5
            }
        },
        {
            "doubleSided" : true,
            "name" : "1_OptMesh_4_0_0.1",
            "pbrMetallicRoughness" : {
                "baseColorTexture" : {
                    "index" : 4,
                    "texCoord" : 0
                },
                "metallicFactor" : 0,
                "roughnessFactor" : 0.5
            }
        },
        {
            "doubleSided" : true,
            "name" : "1_OptMesh_5_0_0.1",
            "pbrMetallicRoughness" : {}
        },
        {
            "doubleSided" : true,
            "name" : "1_OptMesh_6_0_0.1",
            "pbrMetallicRoughness" : {
                "baseColorTexture" : {
                    "index" : 5,
                    "texCoord" : 0
                },
                "metallicFactor" : 0,
                "roughnessFactor" : 0.5
            }
        },
        {
            "doubleSided" : true,
            "name" : "1_OptMesh_7_0_0.1",
            "pbrMetallicRoughness" : {
                "baseColorTexture" : {
                    "index" : 6,
                    "texCoord" : 0
                },
                "metallicFactor" : 0,
                "roughnessFactor" : 0.5
            }
        }
    ],
    "meshes" : [
        {
            "name" : "1_OptMesh_0_0_0.1",
            "primitives" : [
                {
                    "attributes" : {
                        "POSITION" : 0,
                        "NORMAL" : 1,
                        "TEXCOORD_0" : 2,
                        "COLOR_0" : 3,
                        "JOINTS_0" : 4,
                        "WEIGHTS_0" : 5
                    },
                    "indices" : 6,
                    "material" : 0
                }
            ]
        },
        {
            "name" : "1_OptMesh_1_0_0.1",
            "primitives" : [
                {
                    "attributes" : {
                        "POSITION" : 8,
                        "NORMAL" : 9,
                        "TEXCOORD_0" : 10,
                        "COLOR_0" : 11,
                        "JOINTS_0" : 12,
                        "WEIGHTS_0" : 13
                    },
                    "indices" : 14,
                    "material" : 1
                }
            ]
        },
        {
            "name" : "1_OptMesh_2_0_0.1",
            "primitives" : [
                {
                    "attributes" : {
                        "POSITION" : 15,
                        "NORMAL" : 16,
                        "TEXCOORD_0" : 17,
                        "COLOR_0" : 18,
                        "JOINTS_0" : 19,
                        "WEIGHTS_0" : 20
                    },
                    "indices" : 21,
                    "material" : 2
                }
            ]
        },
        {
            "name" : "1_OptMesh_3_0_0.1",
            "primitives" : [
                {
                    "attributes" : {
                        "POSITION" : 22,
                        "NORMAL" : 23,
                        "TEXCOORD_0" : 24,
                        "COLOR_0" : 25,
                        "JOINTS_0" : 26,
                        "WEIGHTS_0" : 27
                    },
                    "indices" : 28,
                    "material" : 3
                }
            ]
        },
        {
            "name" : "1_OptMesh_4_0_0.1",
            "primitives" : [
                {
                    "attributes" : {
                        "POSITION" : 29,
                        "NORMAL" : 30,
                        "TEXCOORD_0" : 31,
                        "COLOR_0" : 32,
                        "JOINTS_0" : 33,
                        "WEIGHTS_0" : 34
                    },
                    "indices" : 35,
                    "material" : 4
                }
            ]
        },
        {
            "name" : "1_OptMesh_5_0_0.1",
            "primitives" : [
                {
                    "attributes" : {
                        "POSITION" : 36,
                        "NORMAL" : 37,
                        "TEXCOORD_0" : 38,
                        "COLOR_0" : 39,
                        "JOINTS_0" : 40,
                        "WEIGHTS_0" : 41
                    },
                    "indices" : 42,
                    "material" : 5
                }
            ]
        },
        {
            "name" : "1_OptMesh_6_0_0.1",
            "primitives" : [
                {
                    "attributes" : {
                        "POSITION" : 43,
                        "NORMAL" : 44,
                        "TEXCOORD_0" : 45,
                        "COLOR_0" : 46,
                        "JOINTS_0" : 47,
                        "WEIGHTS_0" : 48
                    },
                    "indices" : 49,
                    "material" : 6
                }
            ]
        },
        {
            "name" : "1_OptMesh_7_0_0.1",
            "primitives" : [
                {
                    "attributes" : {
                        "POSITION" : 50,
                        "NORMAL" : 51,
                        "TEXCOORD_0" : 52,
                        "COLOR_0" : 53,
                        "JOINTS_0" : 54,
                        "WEIGHTS_0" : 55
                    },
                    "indices" : 56,
                    "material" : 7
                }
            ]
        }
    ],
    "textures" : [
        {
            "source" : 0
        },
        {
            "source" : 0
        },
        {
            "source" : 1
        },
        {
            "source" : 1
        },
        {
            "source" : 1
        },
        {
            "source" : 1
        },
        {
            "source" : 2
        }
    ],
    "images" : [
        {
            "mimeType" : "image/png",
            "name" : "pm0389_00_BodyA1.tga",
            "uri" : "pm0389_00_BodyA1_tga.png"
        },
        {
            "mimeType" : "image/png",
            "name" : "pm0389_00_BodyB1.tga",
            "uri" : "pm0389_00_BodyB1_tga.png"
        },
        {
            "mimeType" : "image/png",
            "name" : "pm0389_00_Eye1.tga",
            "uri" : "pm0389_00_Eye1_tga.png"
        }
    ],
    "skins" : [
        {
            "inverseBindMatrices" : 7,
            "joints" : [
                39,
                34,
                33,
                22,
                13,
                4,
                3,
                2,
                8,
                7,
                6,
                5,
                12,
                11,
                10,
                9,
                21,
                20,
                15,
                14,
                17,
                16,
                19,
                18,
                32,
                25,
                24,
                23,
                28,
                27,
                26,
                31,
                30,
                29,
                35,
                36,
                37,
                38
            ],
            "name" : "Armature"
        }
    ],
    "accessors" : [
        {
            "bufferView" : 0,
            "componentType" : 5126,
            "count" : 768,
            "max" : [
                0.9168238043785095,
                0.6562981009483337,
                1.078518033027649
            ],
            "min" : [
                -0.9168238639831543,
                0.05296697840094566,
                -0.6631958484649658
            ],
            "type" : "VEC3"
        },
        {
            "bufferView" : 1,
            "componentType" : 5126,
            "count" : 768,
            "type" : "VEC3"
        },
        {
            "bufferView" : 2,
            "componentType" : 5126,
            "count" : 768,
            "type" : "VEC2"
        },
        {
            "bufferView" : 3,
            "componentType" : 5126,
            "count" : 768,
            "type" : "VEC4"
        },
        {
            "bufferView" : 4,
            "componentType" : 5123,
            "count" : 768,
            "type" : "VEC4"
        },
        {
            "bufferView" : 5,
            "componentType" : 5126,
            "count" : 768,
            "type" : "VEC4"
        },
        {
            "bufferView" : 6,
            "componentType" : 5123,
            "count" : 3408,
            "type" : "SCALAR"
        },
        {
            "bufferView" : 7,
            "componentType" : 5126,
            "count" : 38,
            "type" : "MAT4"
        },
        {
            "bufferView" : 8,
            "componentType" : 5126,
            "count" : 1233,
            "max" : [
                0.9182277321815491,
                0.9256051182746887,
                1.2461040019989014
            ],
            "min" : [
                -0.9182278513908386,
                0.013613232411444187,
                -1.7647337913513184
            ],
            "type" : "VEC3"
        },
        {
            "bufferView" : 9,
            "componentType" : 5126,
            "count" : 1233,
            "type" : "VEC3"
        },
        {
            "bufferView" : 10,
            "componentType" : 5126,
            "count" : 1233,
            "type" : "VEC2"
        },
        {
            "bufferView" : 11,
            "componentType" : 5126,
            "count" : 1233,
            "type" : "VEC4"
        },
        {
            "bufferView" : 12,
            "componentType" : 5123,
            "count" : 1233,
            "type" : "VEC4"
        },
        {
            "bufferView" : 13,
            "componentType" : 5126,
            "count" : 1233,
            "type" : "VEC4"
        },
        {
            "bufferView" : 14,
            "componentType" : 5123,
            "count" : 5712,
            "type" : "SCALAR"
        },
        {
            "bufferView" : 15,
            "componentType" : 5126,
            "count" : 251,
            "max" : [
                0.7315574288368225,
                1.1444358825683594,
                1.034386157989502
            ],
            "min" : [
                -0.7315576076507568,
                0.5557603240013123,
                -1.0564239025115967
            ],
            "type" : "VEC3"
        },
        {
            "bufferView" : 16,
            "componentType" : 5126,
            "count" : 251,
            "type" : "VEC3"
        },
        {
            "bufferView" : 17,
            "componentType" : 5126,
            "count" : 251,
            "type" : "VEC2"
        },
        {
            "bufferView" : 18,
            "componentType" : 5126,
            "count" : 251,
            "type" : "VEC4"
        },
        {
            "bufferView" : 19,
            "componentType" : 5123,
            "count" : 251,
            "type" : "VEC4"
        },
        {
            "bufferView" : 20,
            "componentType" : 5126,
            "count" : 251,
            "type" : "VEC4"
        },
        {
            "bufferView" : 21,
            "componentType" : 5123,
            "count" : 1092,
            "type" : "SCALAR"
        },
        {
            "bufferView" : 22,
            "componentType" : 5126,
            "count" : 1324,
            "max" : [
                1.0396180152893066,
                2.2375359535217285,
                0.624842643737793
            ],
            "min" : [
                -0.2178528904914856,
                1.2128310203552246,
                -0.914223313331604
            ],
            "type" : "VEC3"
        },
        {
            "bufferView" : 23,
            "componentType" : 5126,
            "count" : 1324,
            "type" : "VEC3"
        },
        {
            "bufferView" : 24,
            "componentType" : 5126,
            "count" : 1324,
            "type" : "VEC2"
        },
        {
            "bufferView" : 25,
            "componentType" : 5126,
            "count" : 1324,
            "type" : "VEC4"
        },
        {
            "bufferView" : 26,
            "componentType" : 5123,
            "count" : 1324,
            "type" : "VEC4"
        },
        {
            "bufferView" : 27,
            "componentType" : 5126,
            "count" : 1324,
            "type" : "VEC4"
        },
        {
            "bufferView" : 28,
            "componentType" : 5123,
            "count" : 7452,
            "type" : "SCALAR"
        },
        {
            "bufferView" : 29,
            "componentType" : 5126,
            "count" : 590,
            "max" : [
                0.7800824046134949,
                1.6378278732299805,
                0.9391850233078003
            ],
            "min" : [
                -0.6816202402114868,
                0.6948578953742981,
                -0.9867134094238281
            ],
            "type" : "VEC3"
        },
        {
            "bufferView" : 30,
            "componentType" : 5126,
            "count" : 590,
            "type" : "VEC3"
        },
        {
            "bufferView" : 31,
            "componentType" : 5126,
            "count" : 590,
            "type" : "VEC2"
        },
        {
            "bufferView" : 32,
            "componentType" : 5126,
            "count" : 590,
            "type" : "VEC4"
        },
        {
            "bufferView" : 33,
            "componentType" : 5123,
            "count" : 590,
            "type" : "VEC4"
        },
        {
            "bufferView" : 34,
            "componentType" : 5126,
            "count" : 590,
            "type" : "VEC4"
        },
        {
            "bufferView" : 35,
            "componentType" : 5123,
            "count" : 2559,
            "type" : "SCALAR"
        },
        {
            "bufferView" : 36,
            "componentType" : 5126,
            "count" : 271,
            "max" : [
                0.5583458542823792,
                1.6136202812194824,
                -0.30241265892982483
            ],
            "min" : [
                0.11458399146795273,
                1.238144040107727,
                -0.9168568253517151
            ],
            "type" : "VEC3"
        },
        {
            "bufferView" : 37,
            "componentType" : 5126,
            "count" : 271,
            "type" : "VEC3"
        },
        {
            "bufferView" : 38,
            "componentType" : 5126,
            "count" : 271,
            "type" : "VEC2"
        },
        {
            "bufferView" : 39,
            "componentType" : 5126,
            "count" : 271,
            "type" : "VEC4"
        },
        {
            "bufferView" : 40,
            "componentType" : 5123,
            "count" : 271,
            "type" : "VEC4"
        },
        {
            "bufferView" : 41,
            "componentType" : 5126,
            "count" : 271,
            "type" : "VEC4"
        },
        {
            "bufferView" : 42,
            "componentType" : 5123,
            "count" : 1476,
            "type" : "SCALAR"
        },
        {
            "bufferView" : 43,
            "componentType" : 5126,
            "count" : 91,
            "max" : [
                -0.32083678245544434,
                1.2205499410629272,
                0.5953207015991211
            ],
            "min" : [
                -0.5845950841903687,
                0.7393858432769775,
                -0.7053155303001404
            ],
            "type" : "VEC3"
        },
        {
            "bufferView" : 44,
            "componentType" : 5126,
            "count" : 91,
            "type" : "VEC3"
        },
        {
            "bufferView" : 45,
            "componentType" : 5126,
            "count" : 91,
            "type" : "VEC2"
        },
        {
            "bufferView" : 46,
            "componentType" : 5126,
            "count" : 91,
            "type" : "VEC4"
        },
        {
            "bufferView" : 47,
            "componentType" : 5123,
            "count" : 91,
            "type" : "VEC4"
        },
        {
            "bufferView" : 48,
            "componentType" : 5126,
            "count" : 91,
            "type" : "VEC4"
        },
        {
            "bufferView" : 49,
            "componentType" : 5123,
            "count" : 324,
            "type" : "SCALAR"
        },
        {
            "bufferView" : 50,
            "componentType" : 5126,
            "count" : 30,
            "max" : [
                0.23052659630775452,
                0.5422368049621582,
                1.0871809720993042
            ],
            "min" : [
                -0.23052659630775452,
                0.3798443078994751,
                0.9257290959358215
            ],
            "type" : "VEC3"
        },
        {
            "bufferView" : 51,
            "componentType" : 5126,
            "count" : 30,
            "type" : "VEC3"
        },
        {
            "bufferView" : 52,
            "componentType" : 5126,
            "count" : 30,
            "type" : "VEC2"
        },
        {
            "bufferView" : 53,
            "componentType" : 5126,
            "count" : 30,
            "type" : "VEC4"
        },
        {
            "bufferView" : 54,
            "componentType" : 5123,
            "count" : 30,
            "type" : "VEC4"
        },
        {
            "bufferView" : 55,
            "componentType" : 5126,
            "count" : 30,
            "type" : "VEC4"
        },
        {
            "bufferView" : 56,
            "componentType" : 5123,
            "count" : 96,
            "type" : "SCALAR"
        }
    ],
    "bufferViews" : [
        {
            "buffer" : 0,
            "byteLength" : 9216,
            "byteOffset" : 0
        },
        {
            "buffer" : 0,
            "byteLength" : 9216,
            "byteOffset" : 9216
        },
        {
            "buffer" : 0,
            "byteLength" : 6144,
            "byteOffset" : 18432
        },
        {
            "buffer" : 0,
            "byteLength" : 12288,
            "byteOffset" : 24576
        },
        {
            "buffer" : 0,
            "byteLength" : 6144,
            "byteOffset" : 36864
        },
        {
            "buffer" : 0,
            "byteLength" : 12288,
            "byteOffset" : 43008
        },
        {
            "buffer" : 0,
            "byteLength" : 6816,
            "byteOffset" : 55296
        },
        {
            "buffer" : 0,
            "byteLength" : 2432,
            "byteOffset" : 62112
        },
        {
            "buffer" : 0,
            "byteLength" : 14796,
            "byteOffset" : 64544
        },
        {
            "buffer" : 0,
            "byteLength" : 14796,
            "byteOffset" : 79340
        },
        {
            "buffer" : 0,
            "byteLength" : 9864,
            "byteOffset" : 94136
        },
        {
            "buffer" : 0,
            "byteLength" : 19728,
            "byteOffset" : 104000
        },
        {
            "buffer" : 0,
            "byteLength" : 9864,
            "byteOffset" : 123728
        },
        {
            "buffer" : 0,
            "byteLength" : 19728,
            "byteOffset" : 133592
        },
        {
            "buffer" : 0,
            "byteLength" : 11424,
            "byteOffset" : 153320
        },
        {
            "buffer" : 0,
            "byteLength" : 3012,
            "byteOffset" : 164744
        },
        {
            "buffer" : 0,
            "byteLength" : 3012,
            "byteOffset" : 167756
        },
        {
            "buffer" : 0,
            "byteLength" : 2008,
            "byteOffset" : 170768
        },
        {
            "buffer" : 0,
            "byteLength" : 4016,
            "byteOffset" : 172776
        },
        {
            "buffer" : 0,
            "byteLength" : 2008,
            "byteOffset" : 176792
        },
        {
            "buffer" : 0,
            "byteLength" : 4016,
            "byteOffset" : 178800
        },
        {
            "buffer" : 0,
            "byteLength" : 2184,
            "byteOffset" : 182816
        },
        {
            "buffer" : 0,
            "byteLength" : 15888,
            "byteOffset" : 185000
        },
        {
            "buffer" : 0,
            "byteLength" : 15888,
            "byteOffset" : 200888
        },
        {
            "buffer" : 0,
            "byteLength" : 10592,
            "byteOffset" : 216776
        },
        {
            "buffer" : 0,
            "byteLength" : 21184,
            "byteOffset" : 227368
        },
        {
            "buffer" : 0,
            "byteLength" : 10592,
            "byteOffset" : 248552
        },
        {
            "buffer" : 0,
            "byteLength" : 21184,
            "byteOffset" : 259144
        },
        {
            "buffer" : 0,
            "byteLength" : 14904,
            "byteOffset" : 280328
        },
        {
            "buffer" : 0,
            "byteLength" : 7080,
            "byteOffset" : 295232
        },
        {
            "buffer" : 0,
            "byteLength" : 7080,
            "byteOffset" : 302312
        },
        {
            "buffer" : 0,
            "byteLength" : 4720,
            "byteOffset" : 309392
        },
        {
            "buffer" : 0,
            "byteLength" : 9440,
            "byteOffset" : 314112
        },
        {
            "buffer" : 0,
            "byteLength" : 4720,
            "byteOffset" : 323552
        },
        {
            "buffer" : 0,
            "byteLength" : 9440,
            "byteOffset" : 328272
        },
        {
            "buffer" : 0,
            "byteLength" : 5118,
            "byteOffset" : 337712
        },
        {
            "buffer" : 0,
            "byteLength" : 3252,
            "byteOffset" : 342832
        },
        {
            "buffer" : 0,
            "byteLength" : 3252,
            "byteOffset" : 346084
        },
        {
            "buffer" : 0,
            "byteLength" : 2168,
            "byteOffset" : 349336
        },
        {
            "buffer" : 0,
            "byteLength" : 4336,
            "byteOffset" : 351504
        },
        {
            "buffer" : 0,
            "byteLength" : 2168,
            "byteOffset" : 355840
        },
        {
            "buffer" : 0,
            "byteLength" : 4336,
            "byteOffset" : 358008
        },
        {
            "buffer" : 0,
            "byteLength" : 2952,
            "byteOffset" : 362344
        },
        {
            "buffer" : 0,
            "byteLength" : 1092,
            "byteOffset" : 365296
        },
        {
            "buffer" : 0,
            "byteLength" : 1092,
            "byteOffset" : 366388
        },
        {
            "buffer" : 0,
            "byteLength" : 728,
            "byteOffset" : 367480
        },
        {
            "buffer" : 0,
            "byteLength" : 1456,
            "byteOffset" : 368208
        },
        {
            "buffer" : 0,
            "byteLength" : 728,
            "byteOffset" : 369664
        },
        {
            "buffer" : 0,
            "byteLength" : 1456,
            "byteOffset" : 370392
        },
        {
            "buffer" : 0,
            "byteLength" : 648,
            "byteOffset" : 371848
        },
        {
            "buffer" : 0,
            "byteLength" : 360,
            "byteOffset" : 372496
        },
        {
            "buffer" : 0,
            "byteLength" : 360,
            "byteOffset" : 372856
        },
        {
            "buffer" : 0,
            "byteLength" : 240,
            "byteOffset" : 373216
        },
        {
            "buffer" : 0,
            "byteLength" : 480,
            "byteOffset" : 373456
        },
        {
            "buffer" : 0,
            "byteLength" : 240,
            "byteOffset" : 373936
        },
        {
            "buffer" : 0,
            "byteLength" : 480,
            "byteOffset" : 374176
        },
        {
            "buffer" : 0,
            "byteLength" : 192,
            "byteOffset" : 374656
        }
    ],
    "buffers" : [
        {
            "byteLength" : 374848,
            "uri" : "Torterra - Pokemon.bin"
        }
    ]
}
